<svg xmlns="http://www.w3.org/2000/svg" viewBox="0 0 24 24" fill="currentColor" class="w-6 h-6">
  <path fill-rule="evenodd" d="M12 2.25c-5.385 0-9.75 4.365-9.75 9.75s4.365 9.75 9.75 9.75 9.75-4.365 9.75-9.75S17.385 2.25 12 2.25zm-2.625 6c-.54 0-.975.435-.975.975v.038c0 .54.435.975.975.975h.038c.54 0 .975-.435.975-.975v-.038c0-.54-.435-.975-.975-.975h-.038zM12 8.25c-.54 0-.975.435-.975.975v.038c0 .54.435.975.975.975h.038c.54 0 .975-.435.975-.975v-.038c0-.54-.435-.975-.975-.975h-.038zm2.625 0c-.54 0-.975.435-.975.975v.038c0 .54.435.975.975.975h.038c.54 0 .975-.435.975-.975v-.038c0-.54-.435-.975-.975-.975h-.038zM8.25 12c-.54 0-.975.435-.975.975v.038c0 .54.435.975.975.975h.038c.54 0 .975-.435.975-.975v-.038c0-.54-.435-.975-.975-.975H8.25zm2.625 0c-.54 0-.975.435-.975.975v.038c0 .54.435.975.975.975h.038c.54 0 .975-.435.975-.975v-.038c0-.54-.435-.975-.975-.975h-.038zm2.625 0c-.54 0-.975.435-.975.975v.038c0 .54.435.975.975.975h.038c.54 0 .975-.435.975-.975v-.038c0-.54-.435-.975-.975-.975h-.038zm2.625 0c-.54 0-.975.435-.975.975v.038c0 .54.435.975.975.975h.038c.54 0 .975-.435.975-.975v-.038c0-.54-.435-.975-.975-.975h-.038zM8.25 15.75c-.54 0-.975.435-.975.975v.038c0 .54.435.975.975.975h.038c.54 0 .975-.435.975-.975v-.038c0-.54-.435-.975-.975-.975H8.25zm2.625 0c-.54 0-.975.435-.975.975v.038c0 .54.435.975.975.975h.038c.54 0 .975-.435.975-.975v-.038c0-.54-.435-.975-.975-.975h-.038zm2.625 0c-.54 0-.975.435-.975.975v.038c0 .54.435.975.975.975h.038c.54 0 .975-.435.975-.975v-.038c0-.54-.435-.975-.975-.975h-.038z" clip-rule="evenodd" />
</svg>
